<svg width="64" height="135" viewBox="0 0 64 135" fill="none" xmlns="http://www.w3.org/2000/svg">
<path d="M24.3182 81.7273V112H9.79545V59.6364H23.6364V68.875H24.25C25.4091 65.8295 27.3523 63.4205 30.0795 61.6477C32.8068 59.8523 36.1136 58.9545 40 58.9545C43.6364 58.9545 46.8068 59.75 49.5114 61.3409C52.2159 62.9318 54.3182 65.2045 55.8182 68.1591C57.3182 71.0909 58.0682 74.5909 58.0682 78.6591V112H43.5455V81.25C43.5682 78.0455 42.75 75.5455 41.0909 73.75C39.4318 71.9318 37.1477 71.0227 34.2386 71.0227C32.2841 71.0227 30.5568 71.4432 29.0568 72.2841C27.5795 73.125 26.4205 74.3523 25.5795 75.9659C24.7614 77.5568 24.3409 79.4773 24.3182 81.7273Z" fill="#23BEEF"/>
<path d="M1 56.3523V44.1819L43 44.1818V56.3523L24.3751 56.3523V114H9.78418V56.3523H1Z" fill="#23BEEF"/>
<path d="M3.6221 20.2254C2.3391 41.3677 8.41427 44.1404 11.6122 42.8839C10.153 44.5864 10.0935 46.7119 21.5288 41.5937C35.8231 35.196 20.976 17.9676 18.0454 14.8194L6.32249 2.2266L3.6221 20.2254Z" fill="#23BEEF"/>
<path d="M19 38.5C25 29.7 15.8333 16.5 10.5 11C26 26.5 24 31 23.5 33.5C23.1133 35.4334 18.3343 40.6377 15.758 43.2406C13.5871 46.3977 14.4963 45.0055 15.5 43.5C15.5832 43.4168 15.6693 43.3302 15.758 43.2406C16.4711 42.2036 17.5165 40.6758 19 38.5Z" fill="#197B9A"/>
</svg>
