<svg width="1920" height="1080" viewBox="0 0 1920 1080" fill="none" xmlns="http://www.w3.org/2000/svg">
<rect width="1920" height="1080" fill="#191919"/>
<path d="M202.4 452.28C200.453 452.28 198.693 451.947 197.12 451.28C195.573 450.613 194.347 449.653 193.44 448.4C192.533 447.147 192.067 445.667 192.04 443.96H198.04C198.12 445.107 198.52 446.013 199.24 446.68C199.987 447.347 201 447.68 202.28 447.68C203.587 447.68 204.613 447.373 205.36 446.76C206.107 446.12 206.48 445.293 206.48 444.28C206.48 443.453 206.227 442.773 205.72 442.24C205.213 441.707 204.573 441.293 203.8 441C203.053 440.68 202.013 440.333 200.68 439.96C198.867 439.427 197.387 438.907 196.24 438.4C195.12 437.867 194.147 437.08 193.32 436.04C192.52 434.973 192.12 433.56 192.12 431.8C192.12 430.147 192.533 428.707 193.36 427.48C194.187 426.253 195.347 425.32 196.84 424.68C198.333 424.013 200.04 423.68 201.96 423.68C204.84 423.68 207.173 424.387 208.96 425.8C210.773 427.187 211.773 429.133 211.96 431.64H205.8C205.747 430.68 205.333 429.893 204.56 429.28C203.813 428.64 202.813 428.32 201.56 428.32C200.467 428.32 199.587 428.6 198.92 429.16C198.28 429.72 197.96 430.533 197.96 431.6C197.96 432.347 198.2 432.973 198.68 433.48C199.187 433.96 199.8 434.36 200.52 434.68C201.267 434.973 202.307 435.32 203.64 435.72C205.453 436.253 206.933 436.787 208.08 437.32C209.227 437.853 210.213 438.653 211.04 439.72C211.867 440.787 212.28 442.187 212.28 443.92C212.28 445.413 211.893 446.8 211.12 448.08C210.347 449.36 209.213 450.387 207.72 451.16C206.227 451.907 204.453 452.28 202.4 452.28ZM223.655 434.44V445.16C223.655 445.907 223.828 446.453 224.175 446.8C224.548 447.12 225.162 447.28 226.015 447.28H228.615V452H225.095C220.375 452 218.015 449.707 218.015 445.12V434.44H215.375V429.84H218.015V424.36H223.655V429.84H228.615V434.44H223.655ZM253.563 429.84V452H247.923V449.2C247.203 450.16 246.256 450.92 245.083 451.48C243.936 452.013 242.683 452.28 241.323 452.28C239.589 452.28 238.056 451.92 236.723 451.2C235.389 450.453 234.336 449.373 233.563 447.96C232.816 446.52 232.443 444.813 232.443 442.84V429.84H238.043V442.04C238.043 443.8 238.483 445.16 239.363 446.12C240.243 447.053 241.443 447.52 242.963 447.52C244.509 447.52 245.723 447.053 246.603 446.12C247.483 445.16 247.923 443.8 247.923 442.04V429.84H253.563ZM257.648 440.84C257.648 438.6 258.088 436.613 258.968 434.88C259.875 433.147 261.101 431.813 262.648 430.88C264.195 429.947 265.915 429.48 267.808 429.48C269.248 429.48 270.621 429.8 271.928 430.44C273.235 431.053 274.275 431.88 275.048 432.92V422.4H280.728V452H275.048V448.72C274.355 449.813 273.381 450.693 272.128 451.36C270.875 452.027 269.421 452.36 267.768 452.36C265.901 452.36 264.195 451.88 262.648 450.92C261.101 449.96 259.875 448.613 258.968 446.88C258.088 445.12 257.648 443.107 257.648 440.84ZM275.088 440.92C275.088 439.56 274.821 438.4 274.288 437.44C273.755 436.453 273.035 435.707 272.128 435.2C271.221 434.667 270.248 434.4 269.208 434.4C268.168 434.4 267.208 434.653 266.328 435.16C265.448 435.667 264.728 436.413 264.168 437.4C263.635 438.36 263.368 439.507 263.368 440.84C263.368 442.173 263.635 443.347 264.168 444.36C264.728 445.347 265.448 446.107 266.328 446.64C267.235 447.173 268.195 447.44 269.208 447.44C270.248 447.44 271.221 447.187 272.128 446.68C273.035 446.147 273.755 445.4 274.288 444.44C274.821 443.453 275.088 442.28 275.088 440.92ZM306.798 440.44C306.798 441.24 306.744 441.96 306.638 442.6H290.438C290.571 444.2 291.131 445.453 292.118 446.36C293.104 447.267 294.318 447.72 295.758 447.72C297.838 447.72 299.318 446.827 300.198 445.04H306.238C305.598 447.173 304.371 448.933 302.558 450.32C300.744 451.68 298.518 452.36 295.878 452.36C293.744 452.36 291.824 451.893 290.118 450.96C288.438 450 287.118 448.653 286.158 446.92C285.224 445.187 284.757 443.187 284.757 440.92C284.757 438.627 285.224 436.613 286.158 434.88C287.091 433.147 288.398 431.813 290.078 430.88C291.758 429.947 293.691 429.48 295.878 429.48C297.984 429.48 299.864 429.933 301.518 430.84C303.198 431.747 304.491 433.04 305.398 434.72C306.331 436.373 306.798 438.28 306.798 440.44ZM300.998 438.84C300.971 437.4 300.451 436.253 299.438 435.4C298.424 434.52 297.184 434.08 295.718 434.08C294.331 434.08 293.158 434.507 292.198 435.36C291.264 436.187 290.691 437.347 290.478 438.84H300.998ZM323.165 429.52C325.805 429.52 327.938 430.36 329.565 432.04C331.192 433.693 332.005 436.013 332.005 439V452H326.405V439.76C326.405 438 325.965 436.653 325.085 435.72C324.205 434.76 323.005 434.28 321.485 434.28C319.938 434.28 318.712 434.76 317.805 435.72C316.925 436.653 316.485 438 316.485 439.76V452H310.885V429.84H316.485V432.6C317.232 431.64 318.178 430.893 319.325 430.36C320.498 429.8 321.778 429.52 323.165 429.52ZM343.85 434.44V445.16C343.85 445.907 344.024 446.453 344.37 446.8C344.744 447.12 345.357 447.28 346.21 447.28H348.81V452H345.29C340.57 452 338.21 449.707 338.21 445.12V434.44H335.57V429.84H338.21V424.36H343.85V429.84H348.81V434.44H343.85ZM360.929 440.84C360.929 438.6 361.369 436.613 362.249 434.88C363.156 433.147 364.369 431.813 365.889 430.88C367.436 429.947 369.156 429.48 371.049 429.48C372.703 429.48 374.143 429.813 375.369 430.48C376.623 431.147 377.623 431.987 378.369 433V429.84H384.009V452H378.369V448.76C377.649 449.8 376.649 450.667 375.369 451.36C374.116 452.027 372.663 452.36 371.009 452.36C369.143 452.36 367.436 451.88 365.889 450.92C364.369 449.96 363.156 448.613 362.249 446.88C361.369 445.12 360.929 443.107 360.929 440.84ZM378.369 440.92C378.369 439.56 378.103 438.4 377.569 437.44C377.036 436.453 376.316 435.707 375.409 435.2C374.503 434.667 373.529 434.4 372.489 434.4C371.449 434.4 370.489 434.653 369.609 435.16C368.729 435.667 368.009 436.413 367.449 437.4C366.916 438.36 366.649 439.507 366.649 440.84C366.649 442.173 366.916 443.347 367.449 444.36C368.009 445.347 368.729 446.107 369.609 446.64C370.516 447.173 371.476 447.44 372.489 447.44C373.529 447.44 374.503 447.187 375.409 446.68C376.316 446.147 377.036 445.4 377.569 444.44C378.103 443.453 378.369 442.28 378.369 440.92ZM395.999 434.44V445.16C395.999 445.907 396.172 446.453 396.519 446.8C396.892 447.12 397.505 447.28 398.359 447.28H400.959V452H397.439C392.719 452 390.359 449.707 390.359 445.12V434.44H387.719V429.84H390.359V424.36H395.999V429.84H400.959V434.44H395.999ZM411.507 434.44V445.16C411.507 445.907 411.68 446.453 412.027 446.8C412.4 447.12 413.013 447.28 413.867 447.28H416.467V452H412.947C408.227 452 405.867 449.707 405.867 445.12V434.44H403.227V429.84H405.867V424.36H411.507V429.84H416.467V434.44H411.507ZM441.094 440.44C441.094 441.24 441.041 441.96 440.934 442.6H424.734C424.868 444.2 425.428 445.453 426.414 446.36C427.401 447.267 428.614 447.72 430.054 447.72C432.134 447.72 433.614 446.827 434.494 445.04H440.534C439.894 447.173 438.668 448.933 436.854 450.32C435.041 451.68 432.814 452.36 430.174 452.36C428.041 452.36 426.121 451.893 424.414 450.96C422.734 450 421.414 448.653 420.454 446.92C419.521 445.187 419.054 443.187 419.054 440.92C419.054 438.627 419.521 436.613 420.454 434.88C421.388 433.147 422.694 431.813 424.374 430.88C426.054 429.947 427.988 429.48 430.174 429.48C432.281 429.48 434.161 429.933 435.814 430.84C437.494 431.747 438.788 433.04 439.694 434.72C440.628 436.373 441.094 438.28 441.094 440.44ZM435.294 438.84C435.268 437.4 434.748 436.253 433.734 435.4C432.721 434.52 431.481 434.08 430.014 434.08C428.628 434.08 427.454 434.507 426.494 435.36C425.561 436.187 424.988 437.347 424.774 438.84H435.294ZM457.462 429.52C460.102 429.52 462.235 430.36 463.862 432.04C465.489 433.693 466.302 436.013 466.302 439V452H460.702V439.76C460.702 438 460.262 436.653 459.382 435.72C458.502 434.76 457.302 434.28 455.782 434.28C454.235 434.28 453.009 434.76 452.102 435.72C451.222 436.653 450.782 438 450.782 439.76V452H445.182V429.84H450.782V432.6C451.529 431.64 452.475 430.893 453.622 430.36C454.795 429.8 456.075 429.52 457.462 429.52ZM470.187 440.84C470.187 438.6 470.627 436.613 471.507 434.88C472.414 433.147 473.641 431.813 475.187 430.88C476.734 429.947 478.454 429.48 480.347 429.48C481.787 429.48 483.161 429.8 484.467 430.44C485.774 431.053 486.814 431.88 487.587 432.92V422.4H493.267V452H487.587V448.72C486.894 449.813 485.921 450.693 484.667 451.36C483.414 452.027 481.961 452.36 480.307 452.36C478.441 452.36 476.734 451.88 475.187 450.92C473.641 449.96 472.414 448.613 471.507 446.88C470.627 445.12 470.187 443.107 470.187 440.84ZM487.627 440.92C487.627 439.56 487.361 438.4 486.827 437.44C486.294 436.453 485.574 435.707 484.667 435.2C483.761 434.667 482.787 434.4 481.747 434.4C480.707 434.4 479.747 434.653 478.867 435.16C477.987 435.667 477.267 436.413 476.707 437.4C476.174 438.36 475.907 439.507 475.907 440.84C475.907 442.173 476.174 443.347 476.707 444.36C477.267 445.347 477.987 446.107 478.867 446.64C479.774 447.173 480.734 447.44 481.747 447.44C482.787 447.44 483.761 447.187 484.667 446.68C485.574 446.147 486.294 445.4 486.827 444.44C487.361 443.453 487.627 442.28 487.627 440.92ZM497.297 440.84C497.297 438.6 497.737 436.613 498.617 434.88C499.523 433.147 500.737 431.813 502.257 430.88C503.803 429.947 505.523 429.48 507.417 429.48C509.07 429.48 510.51 429.813 511.737 430.48C512.99 431.147 513.99 431.987 514.737 433V429.84H520.377V452H514.737V448.76C514.017 449.8 513.017 450.667 511.737 451.36C510.483 452.027 509.03 452.36 507.377 452.36C505.51 452.36 503.803 451.88 502.257 450.92C500.737 449.96 499.523 448.613 498.617 446.88C497.737 445.12 497.297 443.107 497.297 440.84ZM514.737 440.92C514.737 439.56 514.47 438.4 513.937 437.44C513.403 436.453 512.683 435.707 511.777 435.2C510.87 434.667 509.897 434.4 508.857 434.4C507.817 434.4 506.857 434.653 505.977 435.16C505.097 435.667 504.377 436.413 503.817 437.4C503.283 438.36 503.017 439.507 503.017 440.84C503.017 442.173 503.283 443.347 503.817 444.36C504.377 445.347 505.097 446.107 505.977 446.64C506.883 447.173 507.843 447.44 508.857 447.44C509.897 447.44 510.87 447.187 511.777 446.68C512.683 446.147 513.403 445.4 513.937 444.44C514.47 443.453 514.737 442.28 514.737 440.92ZM538.126 429.52C540.766 429.52 542.899 430.36 544.526 432.04C546.153 433.693 546.966 436.013 546.966 439V452H541.366V439.76C541.366 438 540.926 436.653 540.046 435.72C539.166 434.76 537.966 434.28 536.446 434.28C534.899 434.28 533.673 434.76 532.766 435.72C531.886 436.653 531.446 438 531.446 439.76V452H525.846V429.84H531.446V432.6C532.193 431.64 533.139 430.893 534.286 430.36C535.459 429.8 536.739 429.52 538.126 429.52ZM550.851 440.92C550.851 438.627 551.318 436.627 552.251 434.92C553.185 433.187 554.478 431.853 556.131 430.92C557.785 429.96 559.678 429.48 561.811 429.48C564.558 429.48 566.825 430.173 568.611 431.56C570.425 432.92 571.638 434.84 572.251 437.32H566.211C565.891 436.36 565.345 435.613 564.571 435.08C563.825 434.52 562.891 434.24 561.771 434.24C560.171 434.24 558.905 434.827 557.971 436C557.038 437.147 556.571 438.787 556.571 440.92C556.571 443.027 557.038 444.667 557.971 445.84C558.905 446.987 560.171 447.56 561.771 447.56C564.038 447.56 565.518 446.547 566.211 444.52H572.251C571.638 446.92 570.425 448.827 568.611 450.24C566.798 451.653 564.531 452.36 561.811 452.36C559.678 452.36 557.785 451.893 556.131 450.96C554.478 450 553.185 448.667 552.251 446.96C551.318 445.227 550.851 443.213 550.851 440.92ZM596.954 440.44C596.954 441.24 596.9 441.96 596.794 442.6H580.594C580.727 444.2 581.287 445.453 582.274 446.36C583.26 447.267 584.474 447.72 585.914 447.72C587.994 447.72 589.474 446.827 590.354 445.04H596.394C595.754 447.173 594.527 448.933 592.714 450.32C590.9 451.68 588.674 452.36 586.034 452.36C583.9 452.36 581.98 451.893 580.274 450.96C578.594 450 577.274 448.653 576.314 446.92C575.38 445.187 574.914 443.187 574.914 440.92C574.914 438.627 575.38 436.613 576.314 434.88C577.247 433.147 578.554 431.813 580.234 430.88C581.914 429.947 583.847 429.48 586.034 429.48C588.14 429.48 590.02 429.933 591.674 430.84C593.354 431.747 594.647 433.04 595.554 434.72C596.487 436.373 596.954 438.28 596.954 440.44ZM591.154 438.84C591.127 437.4 590.607 436.253 589.594 435.4C588.58 434.52 587.34 434.08 585.874 434.08C584.487 434.08 583.314 434.507 582.354 435.36C581.42 436.187 580.847 437.347 580.634 438.84H591.154ZM638.093 429.52C640.813 429.52 642.999 430.36 644.653 432.04C646.333 433.693 647.173 436.013 647.173 439V452H641.573V439.76C641.573 438.027 641.133 436.707 640.253 435.8C639.373 434.867 638.173 434.4 636.653 434.4C635.133 434.4 633.919 434.867 633.013 435.8C632.133 436.707 631.693 438.027 631.693 439.76V452H626.093V439.76C626.093 438.027 625.653 436.707 624.773 435.8C623.893 434.867 622.693 434.4 621.173 434.4C619.626 434.4 618.399 434.867 617.493 435.8C616.613 436.707 616.173 438.027 616.173 439.76V452H610.573V429.84H616.173V432.52C616.893 431.587 617.813 430.853 618.933 430.32C620.079 429.787 621.333 429.52 622.693 429.52C624.426 429.52 625.973 429.893 627.333 430.64C628.693 431.36 629.746 432.4 630.493 433.76C631.213 432.48 632.253 431.453 633.613 430.68C634.999 429.907 636.493 429.52 638.093 429.52ZM651.047 440.84C651.047 438.6 651.487 436.613 652.367 434.88C653.273 433.147 654.487 431.813 656.007 430.88C657.553 429.947 659.273 429.48 661.167 429.48C662.82 429.48 664.26 429.813 665.487 430.48C666.74 431.147 667.74 431.987 668.487 433V429.84H674.127V452H668.487V448.76C667.767 449.8 666.767 450.667 665.487 451.36C664.233 452.027 662.78 452.36 661.127 452.36C659.26 452.36 657.553 451.88 656.007 450.92C654.487 449.96 653.273 448.613 652.367 446.88C651.487 445.12 651.047 443.107 651.047 440.84ZM668.487 440.92C668.487 439.56 668.22 438.4 667.687 437.44C667.153 436.453 666.433 435.707 665.527 435.2C664.62 434.667 663.647 434.4 662.607 434.4C661.567 434.4 660.607 434.653 659.727 435.16C658.847 435.667 658.127 436.413 657.567 437.4C657.033 438.36 656.767 439.507 656.767 440.84C656.767 442.173 657.033 443.347 657.567 444.36C658.127 445.347 658.847 446.107 659.727 446.64C660.633 447.173 661.593 447.44 662.607 447.44C663.647 447.44 664.62 447.187 665.527 446.68C666.433 446.147 667.153 445.4 667.687 444.44C668.22 443.453 668.487 442.28 668.487 440.92ZM685.196 433.28C685.916 432.107 686.849 431.187 687.996 430.52C689.169 429.853 690.503 429.52 691.996 429.52V435.4H690.516C688.756 435.4 687.423 435.813 686.516 436.64C685.636 437.467 685.196 438.907 685.196 440.96V452H679.596V429.84H685.196V433.28ZM708.888 452L701.368 442.56V452H695.768V422.4H701.368V439.24L708.808 429.84H716.088L706.328 440.96L716.168 452H708.888ZM721.967 427.2C720.981 427.2 720.154 426.893 719.487 426.28C718.847 425.64 718.527 424.853 718.527 423.92C718.527 422.987 718.847 422.213 719.487 421.6C720.154 420.96 720.981 420.64 721.967 420.64C722.954 420.64 723.767 420.96 724.407 421.6C725.074 422.213 725.407 422.987 725.407 423.92C725.407 424.853 725.074 425.64 724.407 426.28C723.767 426.893 722.954 427.2 721.967 427.2ZM724.727 429.84V452H719.127V429.84H724.727ZM742.54 429.52C745.18 429.52 747.313 430.36 748.94 432.04C750.567 433.693 751.38 436.013 751.38 439V452H745.78V439.76C745.78 438 745.34 436.653 744.46 435.72C743.58 434.76 742.38 434.28 740.86 434.28C739.313 434.28 738.087 434.76 737.18 435.72C736.3 436.653 735.86 438 735.86 439.76V452H730.26V429.84H735.86V432.6C736.607 431.64 737.553 430.893 738.7 430.36C739.873 429.8 741.153 429.52 742.54 429.52ZM765.385 429.48C767.039 429.48 768.492 429.813 769.745 430.48C770.999 431.12 771.985 431.96 772.705 433V429.84H778.345V452.16C778.345 454.213 777.932 456.04 777.105 457.64C776.279 459.267 775.039 460.547 773.385 461.48C771.732 462.44 769.732 462.92 767.385 462.92C764.239 462.92 761.652 462.187 759.625 460.72C757.625 459.253 756.492 457.253 756.225 454.72H761.785C762.079 455.733 762.705 456.533 763.665 457.12C764.652 457.733 765.839 458.04 767.225 458.04C768.852 458.04 770.172 457.547 771.185 456.56C772.199 455.6 772.705 454.133 772.705 452.16V448.72C771.985 449.76 770.985 450.627 769.705 451.32C768.452 452.013 767.012 452.36 765.385 452.36C763.519 452.36 761.812 451.88 760.265 450.92C758.719 449.96 757.492 448.613 756.585 446.88C755.705 445.12 755.265 443.107 755.265 440.84C755.265 438.6 755.705 436.613 756.585 434.88C757.492 433.147 758.705 431.813 760.225 430.88C761.772 429.947 763.492 429.48 765.385 429.48ZM772.705 440.92C772.705 439.56 772.439 438.4 771.905 437.44C771.372 436.453 770.652 435.707 769.745 435.2C768.839 434.667 767.865 434.4 766.825 434.4C765.785 434.4 764.825 434.653 763.945 435.16C763.065 435.667 762.345 436.413 761.785 437.4C761.252 438.36 760.985 439.507 760.985 440.84C760.985 442.173 761.252 443.347 761.785 444.36C762.345 445.347 763.065 446.107 763.945 446.64C764.852 447.173 765.812 447.44 766.825 447.44C767.865 447.44 768.839 447.187 769.745 446.68C770.652 446.147 771.372 445.4 771.905 444.44C772.439 443.453 772.705 442.28 772.705 440.92ZM220.28 489.52C223 489.52 225.187 490.36 226.84 492.04C228.52 493.693 229.36 496.013 229.36 499V512H223.76V499.76C223.76 498.027 223.32 496.707 222.44 495.8C221.56 494.867 220.36 494.4 218.84 494.4C217.32 494.4 216.107 494.867 215.2 495.8C214.32 496.707 213.88 498.027 213.88 499.76V512H208.28V499.76C208.28 498.027 207.84 496.707 206.96 495.8C206.08 494.867 204.88 494.4 203.36 494.4C201.813 494.4 200.587 494.867 199.68 495.8C198.8 496.707 198.36 498.027 198.36 499.76V512H192.76V489.84H198.36V492.52C199.08 491.587 200 490.853 201.12 490.32C202.267 489.787 203.52 489.52 204.88 489.52C206.613 489.52 208.16 489.893 209.52 490.64C210.88 491.36 211.933 492.4 212.68 493.76C213.4 492.48 214.44 491.453 215.8 490.68C217.187 489.907 218.68 489.52 220.28 489.52ZM233.234 500.84C233.234 498.6 233.674 496.613 234.554 494.88C235.461 493.147 236.674 491.813 238.194 490.88C239.741 489.947 241.461 489.48 243.354 489.48C245.007 489.48 246.447 489.813 247.674 490.48C248.927 491.147 249.927 491.987 250.674 493V489.84H256.314V512H250.674V508.76C249.954 509.8 248.954 510.667 247.674 511.36C246.421 512.027 244.967 512.36 243.314 512.36C241.447 512.36 239.741 511.88 238.194 510.92C236.674 509.96 235.461 508.613 234.554 506.88C233.674 505.12 233.234 503.107 233.234 500.84ZM250.674 500.92C250.674 499.56 250.407 498.4 249.874 497.44C249.341 496.453 248.621 495.707 247.714 495.2C246.807 494.667 245.834 494.4 244.794 494.4C243.754 494.4 242.794 494.653 241.914 495.16C241.034 495.667 240.314 496.413 239.754 497.4C239.221 498.36 238.954 499.507 238.954 500.84C238.954 502.173 239.221 503.347 239.754 504.36C240.314 505.347 241.034 506.107 241.914 506.64C242.821 507.173 243.781 507.44 244.794 507.44C245.834 507.44 246.807 507.187 247.714 506.68C248.621 506.147 249.341 505.4 249.874 504.44C250.407 503.453 250.674 502.28 250.674 500.92ZM260.343 500.84C260.343 498.6 260.783 496.613 261.663 494.88C262.57 493.147 263.797 491.813 265.343 490.88C266.89 489.947 268.61 489.48 270.503 489.48C271.943 489.48 273.317 489.8 274.623 490.44C275.93 491.053 276.97 491.88 277.743 492.92V482.4H283.423V512H277.743V508.72C277.05 509.813 276.077 510.693 274.823 511.36C273.57 512.027 272.117 512.36 270.463 512.36C268.597 512.36 266.89 511.88 265.343 510.92C263.797 509.96 262.57 508.613 261.663 506.88C260.783 505.12 260.343 503.107 260.343 500.84ZM277.783 500.92C277.783 499.56 277.517 498.4 276.983 497.44C276.45 496.453 275.73 495.707 274.823 495.2C273.917 494.667 272.943 494.4 271.903 494.4C270.863 494.4 269.903 494.653 269.023 495.16C268.143 495.667 267.423 496.413 266.863 497.4C266.33 498.36 266.063 499.507 266.063 500.84C266.063 502.173 266.33 503.347 266.863 504.36C267.423 505.347 268.143 506.107 269.023 506.64C269.93 507.173 270.89 507.44 271.903 507.44C272.943 507.44 273.917 507.187 274.823 506.68C275.73 506.147 276.45 505.4 276.983 504.44C277.517 503.453 277.783 502.28 277.783 500.92ZM309.493 500.44C309.493 501.24 309.439 501.96 309.333 502.6H293.133C293.266 504.2 293.826 505.453 294.813 506.36C295.799 507.267 297.013 507.72 298.453 507.72C300.533 507.72 302.013 506.827 302.893 505.04H308.933C308.293 507.173 307.066 508.933 305.253 510.32C303.439 511.68 301.213 512.36 298.573 512.36C296.439 512.36 294.519 511.893 292.813 510.96C291.133 510 289.813 508.653 288.853 506.92C287.919 505.187 287.453 503.187 287.453 500.92C287.453 498.627 287.919 496.613 288.853 494.88C289.786 493.147 291.093 491.813 292.773 490.88C294.453 489.947 296.386 489.48 298.573 489.48C300.679 489.48 302.559 489.933 304.213 490.84C305.893 491.747 307.186 493.04 308.093 494.72C309.026 496.373 309.493 498.28 309.493 500.44ZM303.693 498.84C303.666 497.4 303.146 496.253 302.133 495.4C301.119 494.52 299.879 494.08 298.413 494.08C297.026 494.08 295.853 494.507 294.893 495.36C293.959 496.187 293.386 497.347 293.173 498.84H303.693ZM343.712 500.44C343.712 501.24 343.658 501.96 343.552 502.6H327.352C327.485 504.2 328.045 505.453 329.032 506.36C330.018 507.267 331.232 507.72 332.672 507.72C334.752 507.72 336.232 506.827 337.112 505.04H343.152C342.512 507.173 341.285 508.933 339.472 510.32C337.658 511.68 335.432 512.36 332.792 512.36C330.658 512.36 328.738 511.893 327.032 510.96C325.352 510 324.032 508.653 323.072 506.92C322.138 505.187 321.672 503.187 321.672 500.92C321.672 498.627 322.138 496.613 323.072 494.88C324.005 493.147 325.312 491.813 326.992 490.88C328.672 489.947 330.605 489.48 332.792 489.48C334.898 489.48 336.778 489.933 338.432 490.84C340.112 491.747 341.405 493.04 342.312 494.72C343.245 496.373 343.712 498.28 343.712 500.44ZM337.912 498.84C337.885 497.4 337.365 496.253 336.352 495.4C335.338 494.52 334.098 494.08 332.632 494.08C331.245 494.08 330.072 494.507 329.112 495.36C328.178 496.187 327.605 497.347 327.392 498.84H337.912ZM346.359 500.84C346.359 498.6 346.799 496.613 347.679 494.88C348.586 493.147 349.799 491.813 351.319 490.88C352.866 489.947 354.586 489.48 356.479 489.48C358.132 489.48 359.572 489.813 360.799 490.48C362.052 491.147 363.052 491.987 363.799 493V489.84H369.439V512H363.799V508.76C363.079 509.8 362.079 510.667 360.799 511.36C359.546 512.027 358.092 512.36 356.439 512.36C354.572 512.36 352.866 511.88 351.319 510.92C349.799 509.96 348.586 508.613 347.679 506.88C346.799 505.12 346.359 503.107 346.359 500.84ZM363.799 500.92C363.799 499.56 363.532 498.4 362.999 497.44C362.466 496.453 361.746 495.707 360.839 495.2C359.932 494.667 358.959 494.4 357.919 494.4C356.879 494.4 355.919 494.653 355.039 495.16C354.159 495.667 353.439 496.413 352.879 497.4C352.346 498.36 352.079 499.507 352.079 500.84C352.079 502.173 352.346 503.347 352.879 504.36C353.439 505.347 354.159 506.107 355.039 506.64C355.946 507.173 356.906 507.44 357.919 507.44C358.959 507.44 359.932 507.187 360.839 506.68C361.746 506.147 362.466 505.4 362.999 504.44C363.532 503.453 363.799 502.28 363.799 500.92ZM383.388 512.36C381.575 512.36 379.948 512.04 378.508 511.4C377.068 510.733 375.922 509.84 375.068 508.72C374.242 507.6 373.788 506.36 373.708 505H379.348C379.455 505.853 379.868 506.56 380.588 507.12C381.335 507.68 382.255 507.96 383.348 507.96C384.415 507.96 385.242 507.747 385.828 507.32C386.442 506.893 386.748 506.347 386.748 505.68C386.748 504.96 386.375 504.427 385.628 504.08C384.908 503.707 383.748 503.307 382.148 502.88C380.495 502.48 379.135 502.067 378.068 501.64C377.028 501.213 376.122 500.56 375.348 499.68C374.602 498.8 374.228 497.613 374.228 496.12C374.228 494.893 374.575 493.773 375.268 492.76C375.988 491.747 377.002 490.947 378.308 490.36C379.642 489.773 381.202 489.48 382.988 489.48C385.628 489.48 387.735 490.147 389.308 491.48C390.882 492.787 391.748 494.56 391.908 496.8H386.548C386.468 495.92 386.095 495.227 385.428 494.72C384.788 494.187 383.922 493.92 382.828 493.92C381.815 493.92 381.028 494.107 380.468 494.48C379.935 494.853 379.668 495.373 379.668 496.04C379.668 496.787 380.042 497.36 380.788 497.76C381.535 498.133 382.695 498.52 384.268 498.92C385.868 499.32 387.188 499.733 388.228 500.16C389.268 500.587 390.162 501.253 390.908 502.16C391.682 503.04 392.082 504.213 392.108 505.68C392.108 506.96 391.748 508.107 391.028 509.12C390.335 510.133 389.322 510.933 387.988 511.52C386.682 512.08 385.148 512.36 383.388 512.36ZM417.905 489.84L404.185 522.48H398.225L403.025 511.44L394.145 489.84H400.425L406.145 505.32L411.945 489.84H417.905Z" fill="white"/>
<path d="M194.512 568.648V576.4C194.512 577.04 194.648 577.496 194.92 577.768C195.192 578.024 195.664 578.152 196.336 578.152H197.944V580H195.976C194.76 580 193.848 579.72 193.24 579.16C192.632 578.6 192.328 577.68 192.328 576.4V568.648H190.624V566.848H192.328V563.536H194.512V566.848H197.944V568.648H194.512ZM206.326 580.216C205.094 580.216 203.974 579.936 202.966 579.376C201.974 578.816 201.19 578.024 200.614 577C200.054 575.96 199.774 574.76 199.774 573.4C199.774 572.056 200.062 570.872 200.638 569.848C201.23 568.808 202.03 568.016 203.038 567.472C204.046 566.912 205.174 566.632 206.422 566.632C207.67 566.632 208.798 566.912 209.806 567.472C210.814 568.016 211.606 568.8 212.182 569.824C212.774 570.848 213.07 572.04 213.07 573.4C213.07 574.76 212.766 575.96 212.158 577C211.566 578.024 210.758 578.816 209.734 579.376C208.71 579.936 207.574 580.216 206.326 580.216ZM206.326 578.296C207.11 578.296 207.846 578.112 208.534 577.744C209.222 577.376 209.774 576.824 210.19 576.088C210.622 575.352 210.838 574.456 210.838 573.4C210.838 572.344 210.63 571.448 210.214 570.712C209.798 569.976 209.254 569.432 208.582 569.08C207.91 568.712 207.182 568.528 206.398 568.528C205.598 568.528 204.862 568.712 204.19 569.08C203.534 569.432 203.006 569.976 202.606 570.712C202.206 571.448 202.006 572.344 202.006 573.4C202.006 574.472 202.198 575.376 202.582 576.112C202.982 576.848 203.51 577.4 204.166 577.768C204.822 578.12 205.542 578.296 206.326 578.296ZM215.126 573.376C215.126 572.032 215.398 570.856 215.942 569.848C216.486 568.824 217.23 568.032 218.174 567.472C219.134 566.912 220.206 566.632 221.39 566.632C222.414 566.632 223.366 566.872 224.246 567.352C225.126 567.816 225.798 568.432 226.262 569.2V562.24H228.47V580H226.262V577.528C225.83 578.312 225.19 578.96 224.342 579.472C223.494 579.968 222.502 580.216 221.366 580.216C220.198 580.216 219.134 579.928 218.174 579.352C217.23 578.776 216.486 577.968 215.942 576.928C215.398 575.888 215.126 574.704 215.126 573.376ZM226.262 573.4C226.262 572.408 226.062 571.544 225.662 570.808C225.262 570.072 224.718 569.512 224.03 569.128C223.358 568.728 222.614 568.528 221.798 568.528C220.982 568.528 220.238 568.72 219.566 569.104C218.894 569.488 218.358 570.048 217.958 570.784C217.558 571.52 217.358 572.384 217.358 573.376C217.358 574.384 217.558 575.264 217.958 576.016C218.358 576.752 218.894 577.32 219.566 577.72C220.238 578.104 220.982 578.296 221.798 578.296C222.614 578.296 223.358 578.104 224.03 577.72C224.718 577.32 225.262 576.752 225.662 576.016C226.062 575.264 226.262 574.392 226.262 573.4ZM231.345 573.376C231.345 572.032 231.617 570.856 232.161 569.848C232.705 568.824 233.449 568.032 234.393 567.472C235.353 566.912 236.417 566.632 237.585 566.632C238.737 566.632 239.737 566.88 240.585 567.376C241.433 567.872 242.065 568.496 242.481 569.248V566.848H244.689V580H242.481V577.552C242.049 578.32 241.401 578.96 240.537 579.472C239.689 579.968 238.697 580.216 237.561 580.216C236.393 580.216 235.337 579.928 234.393 579.352C233.449 578.776 232.705 577.968 232.161 576.928C231.617 575.888 231.345 574.704 231.345 573.376ZM242.481 573.4C242.481 572.408 242.281 571.544 241.881 570.808C241.481 570.072 240.937 569.512 240.249 569.128C239.577 568.728 238.833 568.528 238.017 568.528C237.201 568.528 236.457 568.72 235.785 569.104C235.113 569.488 234.577 570.048 234.177 570.784C233.777 571.52 233.577 572.384 233.577 573.376C233.577 574.384 233.777 575.264 234.177 576.016C234.577 576.752 235.113 577.32 235.785 577.72C236.457 578.104 237.201 578.296 238.017 578.296C238.833 578.296 239.577 578.104 240.249 577.72C240.937 577.32 241.481 576.752 241.881 576.016C242.281 575.264 242.481 574.392 242.481 573.4ZM259.707 566.848L251.787 586.192H249.531L252.123 579.856L246.819 566.848H249.243L253.371 577.504L257.451 566.848H259.707ZM266.559 580.216C265.551 580.216 264.647 580.048 263.847 579.712C263.047 579.36 262.415 578.88 261.951 578.272C261.487 577.648 261.231 576.936 261.183 576.136H263.439C263.503 576.792 263.807 577.328 264.351 577.744C264.911 578.16 265.639 578.368 266.535 578.368C267.367 578.368 268.023 578.184 268.503 577.816C268.983 577.448 269.223 576.984 269.223 576.424C269.223 575.848 268.967 575.424 268.455 575.152C267.943 574.864 267.151 574.584 266.079 574.312C265.103 574.056 264.303 573.8 263.679 573.544C263.071 573.272 262.543 572.88 262.095 572.368C261.663 571.84 261.447 571.152 261.447 570.304C261.447 569.632 261.647 569.016 262.047 568.456C262.447 567.896 263.015 567.456 263.751 567.136C264.487 566.8 265.327 566.632 266.271 566.632C267.727 566.632 268.903 567 269.799 567.736C270.695 568.472 271.175 569.48 271.239 570.76H269.055C269.007 570.072 268.727 569.52 268.215 569.104C267.719 568.688 267.047 568.48 266.199 568.48C265.415 568.48 264.791 568.648 264.327 568.984C263.863 569.32 263.631 569.76 263.631 570.304C263.631 570.736 263.767 571.096 264.039 571.384C264.327 571.656 264.679 571.88 265.095 572.056C265.527 572.216 266.119 572.4 266.871 572.608C267.815 572.864 268.583 573.12 269.175 573.376C269.767 573.616 270.271 573.984 270.687 574.48C271.119 574.976 271.343 575.624 271.359 576.424C271.359 577.144 271.159 577.792 270.759 578.368C270.359 578.944 269.791 579.4 269.055 579.736C268.335 580.056 267.503 580.216 266.559 580.216ZM285.496 580.216C284.488 580.216 283.584 580.048 282.784 579.712C281.984 579.36 281.352 578.88 280.888 578.272C280.424 577.648 280.168 576.936 280.12 576.136H282.376C282.44 576.792 282.744 577.328 283.288 577.744C283.848 578.16 284.576 578.368 285.472 578.368C286.304 578.368 286.96 578.184 287.44 577.816C287.92 577.448 288.16 576.984 288.16 576.424C288.16 575.848 287.904 575.424 287.392 575.152C286.88 574.864 286.088 574.584 285.016 574.312C284.04 574.056 283.24 573.8 282.616 573.544C282.008 573.272 281.48 572.88 281.032 572.368C280.6 571.84 280.384 571.152 280.384 570.304C280.384 569.632 280.584 569.016 280.984 568.456C281.384 567.896 281.952 567.456 282.688 567.136C283.424 566.8 284.264 566.632 285.208 566.632C286.664 566.632 287.84 567 288.736 567.736C289.632 568.472 290.112 569.48 290.176 570.76H287.992C287.944 570.072 287.664 569.52 287.152 569.104C286.656 568.688 285.984 568.48 285.136 568.48C284.352 568.48 283.728 568.648 283.264 568.984C282.8 569.32 282.568 569.76 282.568 570.304C282.568 570.736 282.704 571.096 282.976 571.384C283.264 571.656 283.616 571.88 284.032 572.056C284.464 572.216 285.056 572.4 285.808 572.608C286.752 572.864 287.52 573.12 288.112 573.376C288.704 573.616 289.208 573.984 289.624 574.48C290.056 574.976 290.28 575.624 290.296 576.424C290.296 577.144 290.096 577.792 289.696 578.368C289.296 578.944 288.728 579.4 287.992 579.736C287.272 580.056 286.44 580.216 285.496 580.216ZM305.379 572.92C305.379 573.336 305.355 573.776 305.307 574.24H294.795C294.875 575.536 295.315 576.552 296.115 577.288C296.931 578.008 297.915 578.368 299.067 578.368C300.011 578.368 300.795 578.152 301.419 577.72C302.059 577.272 302.507 576.68 302.763 575.944H305.115C304.763 577.208 304.059 578.24 303.003 579.04C301.947 579.824 300.635 580.216 299.067 580.216C297.819 580.216 296.699 579.936 295.707 579.376C294.731 578.816 293.963 578.024 293.403 577C292.843 575.96 292.563 574.76 292.563 573.4C292.563 572.04 292.835 570.848 293.379 569.824C293.923 568.8 294.683 568.016 295.659 567.472C296.651 566.912 297.787 566.632 299.067 566.632C300.315 566.632 301.419 566.904 302.379 567.448C303.339 567.992 304.075 568.744 304.587 569.704C305.115 570.648 305.379 571.72 305.379 572.92ZM303.123 572.464C303.123 571.632 302.939 570.92 302.571 570.328C302.203 569.72 301.699 569.264 301.059 568.96C300.435 568.64 299.739 568.48 298.971 568.48C297.867 568.48 296.923 568.832 296.139 569.536C295.371 570.24 294.931 571.216 294.819 572.464H303.123ZM312.918 580.216C311.91 580.216 311.006 580.048 310.206 579.712C309.406 579.36 308.774 578.88 308.31 578.272C307.846 577.648 307.59 576.936 307.542 576.136H309.798C309.862 576.792 310.166 577.328 310.71 577.744C311.27 578.16 311.998 578.368 312.894 578.368C313.726 578.368 314.382 578.184 314.862 577.816C315.342 577.448 315.582 576.984 315.582 576.424C315.582 575.848 315.326 575.424 314.814 575.152C314.302 574.864 313.51 574.584 312.438 574.312C311.462 574.056 310.662 573.8 310.038 573.544C309.43 573.272 308.902 572.88 308.454 572.368C308.022 571.84 307.806 571.152 307.806 570.304C307.806 569.632 308.006 569.016 308.406 568.456C308.806 567.896 309.374 567.456 310.11 567.136C310.846 566.8 311.686 566.632 312.63 566.632C314.086 566.632 315.262 567 316.158 567.736C317.054 568.472 317.534 569.48 317.598 570.76H315.414C315.366 570.072 315.086 569.52 314.574 569.104C314.078 568.688 313.406 568.48 312.558 568.48C311.774 568.48 311.15 568.648 310.686 568.984C310.222 569.32 309.99 569.76 309.99 570.304C309.99 570.736 310.126 571.096 310.398 571.384C310.686 571.656 311.038 571.88 311.454 572.056C311.886 572.216 312.478 572.4 313.23 572.608C314.174 572.864 314.942 573.12 315.534 573.376C316.126 573.616 316.63 573.984 317.046 574.48C317.478 574.976 317.702 575.624 317.718 576.424C317.718 577.144 317.518 577.792 317.118 578.368C316.718 578.944 316.15 579.4 315.414 579.736C314.694 580.056 313.862 580.216 312.918 580.216ZM325.457 580.216C324.449 580.216 323.545 580.048 322.745 579.712C321.945 579.36 321.313 578.88 320.849 578.272C320.385 577.648 320.129 576.936 320.081 576.136H322.337C322.401 576.792 322.705 577.328 323.249 577.744C323.809 578.16 324.537 578.368 325.433 578.368C326.265 578.368 326.921 578.184 327.401 577.816C327.881 577.448 328.121 576.984 328.121 576.424C328.121 575.848 327.865 575.424 327.353 575.152C326.841 574.864 326.049 574.584 324.977 574.312C324.001 574.056 323.201 573.8 322.577 573.544C321.969 573.272 321.441 572.88 320.993 572.368C320.561 571.84 320.345 571.152 320.345 570.304C320.345 569.632 320.545 569.016 320.945 568.456C321.345 567.896 321.913 567.456 322.649 567.136C323.385 566.8 324.225 566.632 325.169 566.632C326.625 566.632 327.801 567 328.697 567.736C329.593 568.472 330.073 569.48 330.137 570.76H327.953C327.905 570.072 327.625 569.52 327.113 569.104C326.617 568.688 325.945 568.48 325.097 568.48C324.313 568.48 323.689 568.648 323.225 568.984C322.761 569.32 322.529 569.76 322.529 570.304C322.529 570.736 322.665 571.096 322.937 571.384C323.225 571.656 323.577 571.88 323.993 572.056C324.425 572.216 325.017 572.4 325.769 572.608C326.713 572.864 327.481 573.12 328.073 573.376C328.665 573.616 329.169 573.984 329.585 574.48C330.017 574.976 330.241 575.624 330.257 576.424C330.257 577.144 330.057 577.792 329.657 578.368C329.257 578.944 328.689 579.4 327.953 579.736C327.233 580.056 326.401 580.216 325.457 580.216ZM334.468 564.712C334.052 564.712 333.7 564.568 333.412 564.28C333.124 563.992 332.98 563.64 332.98 563.224C332.98 562.808 333.124 562.456 333.412 562.168C333.7 561.88 334.052 561.736 334.468 561.736C334.868 561.736 335.204 561.88 335.476 562.168C335.764 562.456 335.908 562.808 335.908 563.224C335.908 563.64 335.764 563.992 335.476 564.28C335.204 564.568 334.868 564.712 334.468 564.712ZM335.524 566.848V580H333.34V566.848H335.524ZM344.982 580.216C343.75 580.216 342.63 579.936 341.622 579.376C340.63 578.816 339.846 578.024 339.27 577C338.71 575.96 338.43 574.76 338.43 573.4C338.43 572.056 338.718 570.872 339.294 569.848C339.886 568.808 340.686 568.016 341.694 567.472C342.702 566.912 343.83 566.632 345.078 566.632C346.326 566.632 347.454 566.912 348.462 567.472C349.47 568.016 350.262 568.8 350.838 569.824C351.43 570.848 351.726 572.04 351.726 573.4C351.726 574.76 351.422 575.96 350.814 577C350.222 578.024 349.414 578.816 348.39 579.376C347.366 579.936 346.23 580.216 344.982 580.216ZM344.982 578.296C345.766 578.296 346.502 578.112 347.19 577.744C347.878 577.376 348.43 576.824 348.846 576.088C349.278 575.352 349.494 574.456 349.494 573.4C349.494 572.344 349.286 571.448 348.87 570.712C348.454 569.976 347.91 569.432 347.238 569.08C346.566 568.712 345.838 568.528 345.054 568.528C344.254 568.528 343.518 568.712 342.846 569.08C342.19 569.432 341.662 569.976 341.262 570.712C340.862 571.448 340.662 572.344 340.662 573.4C340.662 574.472 340.854 575.376 341.238 576.112C341.638 576.848 342.166 577.4 342.822 577.768C343.478 578.12 344.198 578.296 344.982 578.296ZM361.006 566.608C362.606 566.608 363.902 567.096 364.894 568.072C365.886 569.032 366.382 570.424 366.382 572.248V580H364.222V572.56C364.222 571.248 363.894 570.248 363.238 569.56C362.582 568.856 361.686 568.504 360.55 568.504C359.398 568.504 358.478 568.864 357.79 569.584C357.118 570.304 356.782 571.352 356.782 572.728V580H354.598V566.848H356.782V568.72C357.214 568.048 357.798 567.528 358.534 567.16C359.286 566.792 360.11 566.608 361.006 566.608ZM377.044 580.144C376.628 580.144 376.276 580 375.988 579.712C375.7 579.424 375.556 579.072 375.556 578.656C375.556 578.24 375.7 577.888 375.988 577.6C376.276 577.312 376.628 577.168 377.044 577.168C377.444 577.168 377.78 577.312 378.052 577.6C378.34 577.888 378.484 578.24 378.484 578.656C378.484 579.072 378.34 579.424 378.052 579.712C377.78 580 377.444 580.144 377.044 580.144ZM377.044 569.872C376.628 569.872 376.276 569.728 375.988 569.44C375.7 569.152 375.556 568.8 375.556 568.384C375.556 567.968 375.7 567.616 375.988 567.328C376.276 567.04 376.628 566.896 377.044 566.896C377.444 566.896 377.78 567.04 378.052 567.328C378.34 567.616 378.484 567.968 378.484 568.384C378.484 568.8 378.34 569.152 378.052 569.44C377.78 569.728 377.444 569.872 377.044 569.872ZM400.744 563.272V580H398.56V572.416H390.04V580H387.856V563.272H390.04V570.616H398.56V563.272H400.744ZM414.769 563.272V565.048H410.209V580H408.025V565.048H403.441V563.272H414.769ZM434.425 563.392V580H432.241V567.616L426.721 580H425.185L419.641 567.592V580H417.457V563.392H419.809L425.953 577.12L432.097 563.392H434.425ZM440.313 578.224H446.169V580H438.129V563.272H440.313V578.224Z" fill="white"/>
<path d="M191.188 125.956C191.188 123.94 191.584 122.152 192.376 120.592C193.192 119.032 194.284 117.832 195.652 116.992C197.044 116.152 198.592 115.732 200.296 115.732C201.784 115.732 203.08 116.032 204.184 116.632C205.312 117.232 206.212 117.988 206.884 118.9V116.056H211.96V136H206.884V133.084C206.236 134.02 205.336 134.8 204.184 135.424C203.056 136.024 201.748 136.324 200.26 136.324C198.58 136.324 197.044 135.892 195.652 135.028C194.284 134.164 193.192 132.952 192.376 131.392C191.584 129.808 191.188 127.996 191.188 125.956ZM206.884 126.028C206.884 124.804 206.644 123.76 206.164 122.896C205.684 122.008 205.036 121.336 204.22 120.88C203.404 120.4 202.528 120.16 201.592 120.16C200.656 120.16 199.792 120.388 199 120.844C198.208 121.3 197.56 121.972 197.056 122.86C196.576 123.724 196.336 124.756 196.336 125.956C196.336 127.156 196.576 128.212 197.056 129.124C197.56 130.012 198.208 130.696 199 131.176C199.816 131.656 200.68 131.896 201.592 131.896C202.528 131.896 203.404 131.668 204.22 131.212C205.036 130.732 205.684 130.06 206.164 129.196C206.644 128.308 206.884 127.252 206.884 126.028ZM222.75 120.196V129.844C222.75 130.516 222.906 131.008 223.218 131.32C223.554 131.608 224.106 131.752 224.874 131.752H227.214V136H224.046C219.798 136 217.674 133.936 217.674 129.808V120.196H215.298V116.056H217.674V111.124H222.75V116.056H227.214V120.196H222.75ZM236.707 120.196V129.844C236.707 130.516 236.863 131.008 237.175 131.32C237.511 131.608 238.063 131.752 238.831 131.752H241.171V136H238.003C233.755 136 231.631 133.936 231.631 129.808V120.196H229.255V116.056H231.631V111.124H236.707V116.056H241.171V120.196H236.707ZM263.337 125.596C263.337 126.316 263.289 126.964 263.193 127.54H248.613C248.733 128.98 249.237 130.108 250.125 130.924C251.013 131.74 252.105 132.148 253.401 132.148C255.273 132.148 256.605 131.344 257.397 129.736H262.833C262.257 131.656 261.153 133.24 259.521 134.488C257.889 135.712 255.885 136.324 253.509 136.324C251.589 136.324 249.861 135.904 248.325 135.064C246.813 134.2 245.625 132.988 244.761 131.428C243.921 129.868 243.5 128.068 243.5 126.028C243.5 123.964 243.921 122.152 244.761 120.592C245.601 119.032 246.777 117.832 248.289 116.992C249.801 116.152 251.541 115.732 253.509 115.732C255.405 115.732 257.097 116.14 258.585 116.956C260.097 117.772 261.261 118.936 262.077 120.448C262.917 121.936 263.337 123.652 263.337 125.596ZM258.117 124.156C258.093 122.86 257.625 121.828 256.713 121.06C255.801 120.268 254.685 119.872 253.365 119.872C252.117 119.872 251.061 120.256 250.197 121.024C249.357 121.768 248.841 122.812 248.649 124.156H258.117ZM278.067 115.768C280.443 115.768 282.363 116.524 283.827 118.036C285.291 119.524 286.023 121.612 286.023 124.3V136H280.983V124.984C280.983 123.4 280.587 122.188 279.795 121.348C279.003 120.484 277.923 120.052 276.555 120.052C275.163 120.052 274.059 120.484 273.243 121.348C272.451 122.188 272.055 123.4 272.055 124.984V136H267.015V116.056H272.055V118.54C272.727 117.676 273.579 117.004 274.611 116.524C275.667 116.02 276.819 115.768 278.067 115.768ZM289.52 125.956C289.52 123.94 289.916 122.152 290.708 120.592C291.524 119.032 292.628 117.832 294.02 116.992C295.412 116.152 296.96 115.732 298.664 115.732C299.96 115.732 301.196 116.02 302.372 116.596C303.548 117.148 304.484 117.892 305.18 118.828V109.36H310.292V136H305.18V133.048C304.556 134.032 303.68 134.824 302.552 135.424C301.424 136.024 300.116 136.324 298.628 136.324C296.948 136.324 295.412 135.892 294.02 135.028C292.628 134.164 291.524 132.952 290.708 131.392C289.916 129.808 289.52 127.996 289.52 125.956ZM305.216 126.028C305.216 124.804 304.976 123.76 304.496 122.896C304.016 122.008 303.368 121.336 302.552 120.88C301.736 120.4 300.86 120.16 299.924 120.16C298.988 120.16 298.124 120.388 297.332 120.844C296.54 121.3 295.892 121.972 295.388 122.86C294.908 123.724 294.668 124.756 294.668 125.956C294.668 127.156 294.908 128.212 295.388 129.124C295.892 130.012 296.54 130.696 297.332 131.176C298.148 131.656 299.012 131.896 299.924 131.896C300.86 131.896 301.736 131.668 302.552 131.212C303.368 130.732 304.016 130.06 304.496 129.196C304.976 128.308 305.216 127.252 305.216 126.028ZM317.77 113.68C316.882 113.68 316.138 113.404 315.538 112.852C314.962 112.276 314.674 111.568 314.674 110.728C314.674 109.888 314.962 109.192 315.538 108.64C316.138 108.064 316.882 107.776 317.77 107.776C318.658 107.776 319.39 108.064 319.966 108.64C320.566 109.192 320.866 109.888 320.866 110.728C320.866 111.568 320.566 112.276 319.966 112.852C319.39 113.404 318.658 113.68 317.77 113.68ZM320.254 116.056V136H315.214V116.056H320.254ZM334.378 120.196H330.886V136H325.774V120.196H323.506V116.056H325.774V115.048C325.774 112.6 326.47 110.8 327.862 109.648C329.254 108.496 331.354 107.956 334.162 108.028V112.276C332.938 112.252 332.086 112.456 331.606 112.888C331.126 113.32 330.886 114.1 330.886 115.228V116.056H334.378V120.196ZM356.724 116.056L344.376 145.432H339.012L343.332 135.496L335.34 116.056H340.992L346.14 129.988L351.36 116.056H356.724Z" fill="white"/>
<path d="M149.937 110.937C148.967 108.675 150.005 106.05 152.255 105.075L163.121 100.366C165.371 99.3903 167.982 100.434 168.952 102.696L173.636 113.619C174.606 115.881 173.569 118.505 171.318 119.48L160.453 124.19C158.203 125.165 155.592 124.122 154.622 121.86L149.937 110.937Z" fill="#FF5B14"/>
<path d="M100.364 132.422C99.3935 130.16 100.431 127.536 102.682 126.56L113.547 121.851C115.797 120.876 118.408 121.919 119.378 124.181L124.063 135.104C125.033 137.366 123.995 139.991 121.745 140.966L110.879 145.675C108.629 146.651 106.018 145.607 105.048 143.345L100.364 132.422Z" fill="#FF5B14"/>
<path d="M125.632 142.52C123.382 143.495 122.344 146.119 123.314 148.381L127.999 159.304C128.969 161.566 131.58 162.61 133.83 161.634L144.696 156.925C146.946 155.95 147.984 153.325 147.013 151.063L142.329 140.14C141.359 137.878 138.748 136.835 136.498 137.81L125.632 142.52Z" fill="#FF5B14"/>
<path d="M145.724 138.669C144.754 136.407 145.792 133.782 148.042 132.807L158.908 128.098C161.158 127.122 163.769 128.166 164.739 130.428L169.423 141.351C170.393 143.613 169.356 146.237 167.105 147.213L156.24 151.922C153.99 152.897 151.379 151.854 150.409 149.592L145.724 138.669Z" fill="#FF5B14"/>
<path fill-rule="evenodd" clip-rule="evenodd" d="M120.724 117.931C119.754 115.669 120.792 113.044 123.042 112.069L138.661 105.3C140.911 104.324 143.522 105.367 144.492 107.63L151.226 123.331C152.196 125.593 151.159 128.218 148.908 129.193L133.289 135.963C131.039 136.938 128.428 135.895 127.458 133.632L120.724 117.931ZM127.122 121.962L126.977 122.37C126.662 123.261 127.062 124.248 127.907 124.663L133.807 127.563C134.715 128.009 135.812 127.639 136.269 126.732L144.153 111.078C144.593 110.204 144.283 109.137 143.444 108.639L143.336 108.574C142.414 108.026 141.224 108.378 140.743 109.34L134.065 122.697C133.974 122.88 133.752 122.954 133.57 122.863L129.687 120.921C128.694 120.424 127.493 120.912 127.122 121.962Z" fill="#FF5B14"/>
<rect x="320" y="629" width="158" height="46.5781" rx="23.2891" fill="white"/>
<path d="M361.44 660.168C360.272 660.168 359.216 659.968 358.272 659.568C357.344 659.168 356.608 658.592 356.064 657.84C355.52 657.088 355.24 656.2 355.224 655.176H358.824C358.872 655.864 359.112 656.408 359.544 656.808C359.992 657.208 360.6 657.408 361.368 657.408C362.152 657.408 362.768 657.224 363.216 656.856C363.664 656.472 363.888 655.976 363.888 655.368C363.888 654.872 363.736 654.464 363.432 654.144C363.128 653.824 362.744 653.576 362.28 653.4C361.832 653.208 361.208 653 360.408 652.776C359.32 652.456 358.432 652.144 357.744 651.84C357.072 651.52 356.488 651.048 355.992 650.424C355.512 649.784 355.272 648.936 355.272 647.88C355.272 646.888 355.52 646.024 356.016 645.288C356.512 644.552 357.208 643.992 358.104 643.608C359 643.208 360.024 643.008 361.176 643.008C362.904 643.008 364.304 643.432 365.376 644.28C366.464 645.112 367.064 646.28 367.176 647.784H363.48C363.448 647.208 363.2 646.736 362.736 646.368C362.288 645.984 361.688 645.792 360.936 645.792C360.28 645.792 359.752 645.96 359.352 646.296C358.968 646.632 358.776 647.12 358.776 647.76C358.776 648.208 358.92 648.584 359.208 648.888C359.512 649.176 359.88 649.416 360.312 649.608C360.76 649.784 361.384 649.992 362.184 650.232C363.272 650.552 364.16 650.872 364.848 651.192C365.536 651.512 366.128 651.992 366.624 652.632C367.12 653.272 367.368 654.112 367.368 655.152C367.368 656.048 367.136 656.88 366.672 657.648C366.208 658.416 365.528 659.032 364.632 659.496C363.736 659.944 362.672 660.168 361.44 660.168ZM373.641 643.248V660H370.281V643.248H373.641ZM388.625 648.288C388.241 647.584 387.713 647.048 387.041 646.68C386.369 646.312 385.585 646.128 384.689 646.128C383.697 646.128 382.817 646.352 382.049 646.8C381.281 647.248 380.681 647.888 380.249 648.72C379.817 649.552 379.601 650.512 379.601 651.6C379.601 652.72 379.817 653.696 380.249 654.528C380.697 655.36 381.313 656 382.097 656.448C382.881 656.896 383.793 657.12 384.833 657.12C386.113 657.12 387.161 656.784 387.977 656.112C388.793 655.424 389.329 654.472 389.585 653.256H383.825V650.688H392.897V653.616C392.673 654.784 392.193 655.864 391.457 656.856C390.721 657.848 389.769 658.648 388.601 659.256C387.449 659.848 386.153 660.144 384.713 660.144C383.097 660.144 381.633 659.784 380.321 659.064C379.025 658.328 378.001 657.312 377.249 656.016C376.513 654.72 376.145 653.248 376.145 651.6C376.145 649.952 376.513 648.48 377.249 647.184C378.001 645.872 379.025 644.856 380.321 644.136C381.633 643.4 383.089 643.032 384.689 643.032C386.577 643.032 388.217 643.496 389.609 644.424C391.001 645.336 391.961 646.624 392.489 648.288H388.625ZM409.711 660H406.351L398.743 648.504V660H395.383V643.224H398.743L406.351 654.744V643.224H409.711V660ZM422.11 643.248V660H418.75V643.248H422.11ZM439.757 660H436.397L428.789 648.504V660H425.429V643.224H428.789L436.397 654.744V643.224H439.757V660Z" fill="black"/>
<path d="M195.016 657.336H200.536V660H191.656V643.248H195.016V657.336ZM210.448 660.168C208.88 660.168 207.44 659.8 206.128 659.064C204.816 658.328 203.776 657.312 203.008 656.016C202.24 654.704 201.856 653.224 201.856 651.576C201.856 649.944 202.24 648.48 203.008 647.184C203.776 645.872 204.816 644.848 206.128 644.112C207.44 643.376 208.88 643.008 210.448 643.008C212.032 643.008 213.472 643.376 214.768 644.112C216.08 644.848 217.112 645.872 217.864 647.184C218.632 648.48 219.016 649.944 219.016 651.576C219.016 653.224 218.632 654.704 217.864 656.016C217.112 657.312 216.08 658.328 214.768 659.064C213.456 659.8 212.016 660.168 210.448 660.168ZM210.448 657.168C211.456 657.168 212.344 656.944 213.112 656.496C213.88 656.032 214.48 655.376 214.912 654.528C215.344 653.68 215.56 652.696 215.56 651.576C215.56 650.456 215.344 649.48 214.912 648.648C214.48 647.8 213.88 647.152 213.112 646.704C212.344 646.256 211.456 646.032 210.448 646.032C209.44 646.032 208.544 646.256 207.76 646.704C206.992 647.152 206.392 647.8 205.96 648.648C205.528 649.48 205.312 650.456 205.312 651.576C205.312 652.696 205.528 653.68 205.96 654.528C206.392 655.376 206.992 656.032 207.76 656.496C208.544 656.944 209.44 657.168 210.448 657.168ZM233.179 648.288C232.795 647.584 232.267 647.048 231.595 646.68C230.923 646.312 230.139 646.128 229.243 646.128C228.251 646.128 227.371 646.352 226.603 646.8C225.835 647.248 225.235 647.888 224.803 648.72C224.371 649.552 224.155 650.512 224.155 651.6C224.155 652.72 224.371 653.696 224.803 654.528C225.251 655.36 225.867 656 226.651 656.448C227.435 656.896 228.347 657.12 229.387 657.12C230.667 657.12 231.715 656.784 232.531 656.112C233.347 655.424 233.883 654.472 234.139 653.256H228.379V650.688H237.451V653.616C237.227 654.784 236.747 655.864 236.011 656.856C235.275 657.848 234.323 658.648 233.155 659.256C232.003 659.848 230.707 660.144 229.267 660.144C227.651 660.144 226.187 659.784 224.875 659.064C223.579 658.328 222.555 657.312 221.803 656.016C221.067 654.72 220.699 653.248 220.699 651.6C220.699 649.952 221.067 648.48 221.803 647.184C222.555 645.872 223.579 644.856 224.875 644.136C226.187 643.4 227.643 643.032 229.243 643.032C231.131 643.032 232.771 643.496 234.163 644.424C235.555 645.336 236.515 646.624 237.043 648.288H233.179ZM249.016 643.248V660H245.656V643.248H249.016ZM266.664 660H263.304L255.696 648.504V660H252.336V643.224H255.696L263.304 654.744V643.224H266.664V660Z" fill="white"/>
<path d="M1698.44 131.168C1697.27 131.168 1696.22 130.968 1695.27 130.568C1694.34 130.168 1693.61 129.592 1693.06 128.84C1692.52 128.088 1692.24 127.2 1692.22 126.176H1695.82C1695.87 126.864 1696.11 127.408 1696.54 127.808C1696.99 128.208 1697.6 128.408 1698.37 128.408C1699.15 128.408 1699.77 128.224 1700.22 127.856C1700.66 127.472 1700.89 126.976 1700.89 126.368C1700.89 125.872 1700.74 125.464 1700.43 125.144C1700.13 124.824 1699.74 124.576 1699.28 124.4C1698.83 124.208 1698.21 124 1697.41 123.776C1696.32 123.456 1695.43 123.144 1694.74 122.84C1694.07 122.52 1693.49 122.048 1692.99 121.424C1692.51 120.784 1692.27 119.936 1692.27 118.88C1692.27 117.888 1692.52 117.024 1693.02 116.288C1693.51 115.552 1694.21 114.992 1695.1 114.608C1696 114.208 1697.02 114.008 1698.18 114.008C1699.9 114.008 1701.3 114.432 1702.38 115.28C1703.46 116.112 1704.06 117.28 1704.18 118.784H1700.48C1700.45 118.208 1700.2 117.736 1699.74 117.368C1699.29 116.984 1698.69 116.792 1697.94 116.792C1697.28 116.792 1696.75 116.96 1696.35 117.296C1695.97 117.632 1695.78 118.12 1695.78 118.76C1695.78 119.208 1695.92 119.584 1696.21 119.888C1696.51 120.176 1696.88 120.416 1697.31 120.608C1697.76 120.784 1698.38 120.992 1699.18 121.232C1700.27 121.552 1701.16 121.872 1701.85 122.192C1702.54 122.512 1703.13 122.992 1703.62 123.632C1704.12 124.272 1704.37 125.112 1704.37 126.152C1704.37 127.048 1704.14 127.88 1703.67 128.648C1703.21 129.416 1702.53 130.032 1701.63 130.496C1700.74 130.944 1699.67 131.168 1698.44 131.168ZM1718.68 114.248V116.96H1714.22V131H1710.86V116.96H1706.39V114.248H1718.68ZM1724.44 114.248V124.616C1724.44 125.752 1724.74 126.624 1725.33 127.232C1725.92 127.824 1726.76 128.12 1727.83 128.12C1728.92 128.12 1729.76 127.824 1730.35 127.232C1730.94 126.624 1731.24 125.752 1731.24 124.616V114.248H1734.62V124.592C1734.62 126.016 1734.31 127.224 1733.68 128.216C1733.08 129.192 1732.25 129.928 1731.21 130.424C1730.19 130.92 1729.04 131.168 1727.78 131.168C1726.53 131.168 1725.4 130.92 1724.37 130.424C1723.36 129.928 1722.56 129.192 1721.97 128.216C1721.38 127.224 1721.08 126.016 1721.08 124.592V114.248H1724.44ZM1743.72 114.248C1745.48 114.248 1747.03 114.592 1748.35 115.28C1749.7 115.968 1750.73 116.952 1751.45 118.232C1752.19 119.496 1752.55 120.968 1752.55 122.648C1752.55 124.328 1752.19 125.8 1751.45 127.064C1750.73 128.312 1749.7 129.28 1748.35 129.968C1747.03 130.656 1745.48 131 1743.72 131H1737.87V114.248H1743.72ZM1743.6 128.144C1745.36 128.144 1746.72 127.664 1747.68 126.704C1748.64 125.744 1749.12 124.392 1749.12 122.648C1749.12 120.904 1748.64 119.544 1747.68 118.568C1746.72 117.576 1745.36 117.08 1743.6 117.08H1741.23V128.144H1743.6ZM1758.43 116.96V121.16H1764.07V123.824H1758.43V128.264H1764.79V131H1755.07V114.224H1764.79V116.96H1758.43ZM1782.17 131H1778.81L1771.2 119.504V131H1767.84V114.224H1771.2L1778.81 125.744V114.224H1782.17V131ZM1796.89 114.248V116.96H1792.43V131H1789.07V116.96H1784.6V114.248H1796.89ZM1805.13 131.168C1803.96 131.168 1802.9 130.968 1801.96 130.568C1801.03 130.168 1800.3 129.592 1799.75 128.84C1799.21 128.088 1798.93 127.2 1798.91 126.176H1802.51C1802.56 126.864 1802.8 127.408 1803.23 127.808C1803.68 128.208 1804.29 128.408 1805.06 128.408C1805.84 128.408 1806.46 128.224 1806.9 127.856C1807.35 127.472 1807.58 126.976 1807.58 126.368C1807.58 125.872 1807.42 125.464 1807.12 125.144C1806.82 124.824 1806.43 124.576 1805.97 124.4C1805.52 124.208 1804.9 124 1804.1 123.776C1803.01 123.456 1802.12 123.144 1801.43 122.84C1800.76 122.52 1800.18 122.048 1799.68 121.424C1799.2 120.784 1798.96 119.936 1798.96 118.88C1798.96 117.888 1799.21 117.024 1799.7 116.288C1800.2 115.552 1800.9 114.992 1801.79 114.608C1802.69 114.208 1803.71 114.008 1804.86 114.008C1806.59 114.008 1807.99 114.432 1809.06 115.28C1810.15 116.112 1810.75 117.28 1810.86 118.784H1807.17C1807.14 118.208 1806.89 117.736 1806.42 117.368C1805.98 116.984 1805.38 116.792 1804.62 116.792C1803.97 116.792 1803.44 116.96 1803.04 117.296C1802.66 117.632 1802.46 118.12 1802.46 118.76C1802.46 119.208 1802.61 119.584 1802.9 119.888C1803.2 120.176 1803.57 120.416 1804 120.608C1804.45 120.784 1805.07 120.992 1805.87 121.232C1806.96 121.552 1807.85 121.872 1808.54 122.192C1809.22 122.512 1809.82 122.992 1810.31 123.632C1810.81 124.272 1811.06 125.112 1811.06 126.152C1811.06 127.048 1810.82 127.88 1810.36 128.648C1809.9 129.416 1809.22 130.032 1808.32 130.496C1807.42 130.944 1806.36 131.168 1805.13 131.168Z" fill="white"/>
<path d="M1741 602.5C1741 754.102 1618.1 877 1466.5 877C1314.9 877 1192 754.102 1192 602.5C1192 450.898 1314.9 328 1466.5 328C1618.1 328 1741 450.898 1741 602.5Z" fill="url(#paint0_linear_732_5)"/>
<defs>
<linearGradient id="paint0_linear_732_5" x1="1449" y1="356.5" x2="1585" y2="1204.5" gradientUnits="userSpaceOnUse">
<stop stop-opacity="0"/>
<stop offset="1" stop-color="#D9D9D9"/>
</linearGradient>
</defs>
</svg>
