<svg width="27" height="22" viewBox="0 0 27 22" fill="none" xmlns="http://www.w3.org/2000/svg">
<path d="M24.3099 4.07741H14.0622L10.8368 0.759991C10.6033 0.520219 10.3167 0.328477 9.9959 0.197459C9.67512 0.0664419 9.32751 -0.000860715 8.97609 8.30964e-06H2.4771C1.8191 8.30964e-06 1.18804 0.238665 0.722763 0.663477C0.257485 1.08829 -0.00390625 1.66446 -0.00390625 2.26523V19.0981C-0.002922 19.68 0.250682 20.2378 0.701324 20.6492C1.15197 21.0607 1.76289 21.2922 2.40019 21.2931H24.4204C25.0489 21.2925 25.6515 21.0643 26.0959 20.6585C26.5403 20.2527 26.7903 19.7025 26.791 19.1287V6.34263C26.791 5.74186 26.5296 5.16569 26.0643 4.74088C25.599 4.31607 24.968 4.07741 24.3099 4.07741ZM2.9733 2.71828H8.75528L10.0789 4.07741H2.9733V2.71828ZM23.8137 18.5748H2.9733V6.79568H23.8137V18.5748Z" fill="#23BEEF"/>
</svg>
