<svg width="33" height="29" viewBox="0 0 33 29" fill="none" xmlns="http://www.w3.org/2000/svg">
<path d="M9.02863 22.5213C8.63467 22.2796 8.29586 21.9715 7.89928 21.5353C7.69344 21.3035 7.48945 21.0702 7.28733 20.8357C6.67932 20.1409 6.29586 19.8195 5.90059 19.6877C5.73428 19.6371 5.58066 19.5563 5.44878 19.4502C5.3169 19.3441 5.20942 19.2148 5.13269 19.0699C5.05595 18.925 5.0115 18.7674 5.00195 18.6064C4.9924 18.4455 5.01796 18.2844 5.0771 18.1327C5.13624 17.9809 5.22778 17.8416 5.34633 17.7229C5.46488 17.6042 5.60804 17.5086 5.76738 17.4416C5.92671 17.3746 6.09901 17.3376 6.27412 17.3328C6.44923 17.328 6.62361 17.3555 6.787 17.4137C7.77453 17.7399 8.44294 18.3018 9.3438 19.3325C9.22036 19.1911 9.79028 19.8484 9.91241 19.9838C10.1619 20.2581 10.3458 20.4248 10.4902 20.513C10.7581 20.6786 11.2624 20.7499 12.0004 20.6822C12.0319 20.2206 12.1238 19.7723 12.2657 19.3591C8.36809 18.4818 6.16192 16.1691 6.16192 11.6306C6.16192 10.1322 6.6478 8.78374 7.55128 7.65274C7.265 6.57249 7.30834 5.26628 7.94787 3.79574C8.02044 3.62939 8.13233 3.47999 8.27543 3.35836C8.41852 3.23672 8.58923 3.14591 8.77518 3.09249C8.88155 3.06349 8.94196 3.0502 9.04833 3.0357C10.1028 2.88586 11.592 3.24111 13.5329 4.36003C14.6896 4.1112 15.8736 3.98632 17.0615 3.98786C18.2591 3.98786 19.4502 4.11353 20.5861 4.36003C22.5257 3.23266 24.0188 2.87741 25.0798 3.0357C25.1915 3.05141 25.2873 3.07195 25.3661 3.09611C25.5484 3.15143 25.7153 3.24285 25.8551 3.36393C25.9949 3.48502 26.1041 3.63283 26.1751 3.79695C26.8146 5.26628 26.8579 6.57128 26.5716 7.65153C27.4791 8.78253 27.961 10.1226 27.961 11.6306C27.961 16.1703 25.7627 18.4758 21.8651 19.3542C22.0293 19.8557 22.1146 20.4152 22.1146 21.0217C22.1146 21.8253 22.112 22.5914 22.1055 23.4505C22.1055 23.6801 22.1028 23.9266 22.0989 24.3036C22.3938 24.3626 22.6577 24.5134 22.846 24.7305C23.0343 24.9475 23.1355 25.2176 23.1328 25.4954C23.13 25.7731 23.0233 26.0415 22.8307 26.2553C22.6381 26.4692 22.3713 26.6154 22.0753 26.6695C20.5782 26.9438 19.4699 26.0267 19.4699 24.8268L19.4725 24.2867L19.4791 23.4348C19.4856 22.5805 19.4896 21.8192 19.4896 21.0217C19.4896 20.1795 19.2479 19.6297 18.9301 19.3772C18.0621 18.6884 18.502 17.3786 19.6406 17.2614C23.5355 16.859 25.3346 15.4707 25.3346 11.6306C25.3346 10.4766 24.9249 9.52324 24.1357 8.72574C23.9696 8.55771 23.8583 8.35001 23.8146 8.12646C23.771 7.9029 23.7967 7.67255 23.8888 7.46182C24.1068 6.96157 24.1987 6.30545 24.0135 5.51157L24.0004 5.5152C23.3556 5.68316 22.5427 6.04686 21.5605 6.66191C21.4021 6.76081 21.2221 6.82666 21.0331 6.85484C20.8442 6.88302 20.6508 6.87285 20.4666 6.82503C19.3581 6.54263 18.2129 6.40075 17.0628 6.40332C15.894 6.40332 14.7358 6.54591 13.659 6.82624C13.4756 6.87349 13.2833 6.88348 13.0953 6.85553C12.9073 6.82757 12.7282 6.76232 12.5703 6.66432C11.5815 6.0517 10.766 5.6892 10.1146 5.52003C9.92686 6.30907 10.0201 6.96278 10.2368 7.46182C10.3284 7.6725 10.3538 7.90268 10.3099 8.126C10.266 8.34931 10.1546 8.55674 9.98858 8.72453C9.2046 9.51599 8.78963 10.4863 8.78963 11.6294C8.78963 15.4622 10.59 16.859 14.4653 17.2602C15.6012 17.3774 16.0437 18.6824 15.181 19.3724C14.9275 19.5754 14.6163 20.2569 14.6163 21.0205V24.8268C14.6163 26.017 13.5211 26.9112 12.0424 26.6731C11.7427 26.6247 11.4706 26.482 11.2725 26.2694C11.0745 26.0568 10.9628 25.7876 10.9566 25.5076C10.9504 25.2277 11.05 24.9544 11.2385 24.7346C11.427 24.5148 11.6926 24.362 11.9899 24.3024V23.1061C10.7949 23.1798 9.80867 22.9998 9.02994 22.5201" fill="white"/>
</svg>
